<svg width="240" height="60" viewBox="0 0 240 60" fill="none" xmlns="http://www.w3.org/2000/svg">
  <!-- Heart -->
  <path d="M30 15C24 9 15 9 15 20C15 31 30 45 30 45C30 45 45 31 45 20C45 9 36 9 30 15Z" fill="#E53E3E"/>
  
  <!-- Arrow -->
  <path d="M70 30L110 30" stroke="#E53E3E" stroke-width="4" stroke-linecap="round"/>
  <path d="M105 25L110 30L105 35" stroke="#E53E3E" stroke-width="4" stroke-linecap="round" stroke-linejoin="round" fill="none"/>
  
  <!-- Music Note 1 -->
  <circle cx="140" cy="40" r="6" fill="#E53E3E"/>
  <rect x="146" y="15" width="2" height="25" fill="#E53E3E"/>
  
  <!-- Music Note 2 -->
  <circle cx="170" cy="35" r="6" fill="#E53E3E"/>
  <rect x="176" y="10" width="2" height="25" fill="#E53E3E"/>
  
  <!-- Connecting beam between notes -->
  <path d="M148 15L178 10L178 20L148 25Z" fill="#E53E3E"/>
</svg> 